<svg width="263" height="67" viewBox="0 0 263 67" fill="none" xmlns="http://www.w3.org/2000/svg">
<path d="M66.5356 5C66.5356 2.23858 64.2971 5.94961e-06 61.5356 5.54818e-07L16.5356 3.25222e-06C13.7742 3.25222e-06 11.5356 2.23858 11.5356 5C11.5356 7.76143 13.7742 10 16.5356 10H56.5356V50C56.5356 52.7614 58.7742 55 61.5356 55C64.2971 55 66.5356 52.7614 66.5356 50L66.5356 5ZM3.53564 63L7.07118 66.5355L65.0712 8.53554L61.5356 5L58.0001 1.46447L0.000110686 59.4645L3.53564 63Z" fill="white"/>
<path d="M164.536 5C164.536 2.23858 162.297 5.94961e-06 159.536 5.54818e-07L114.536 3.25222e-06C111.774 3.25222e-06 109.536 2.23858 109.536 5C109.536 7.76143 111.774 10 114.536 10H154.536V50C154.536 52.7614 156.774 55 159.536 55C162.297 55 164.536 52.7614 164.536 50L164.536 5ZM101.536 63L105.071 66.5355L163.071 8.53554L159.536 5L156 1.46447L98.0001 59.4645L101.536 63Z" fill="white"/>
<path d="M262.536 5C262.536 2.23858 260.297 5.94961e-06 257.536 5.54818e-07L212.536 3.25222e-06C209.774 3.25222e-06 207.536 2.23858 207.536 5C207.536 7.76143 209.774 10 212.536 10H252.536V50C252.536 52.7614 254.774 55 257.536 55C260.297 55 262.536 52.7614 262.536 50L262.536 5ZM199.536 63L203.071 66.5355L261.071 8.53554L257.536 5L254 1.46447L196 59.4645L199.536 63Z" fill="white"/>
</svg>
