<svg width="67" height="26" viewBox="0 0 67 26" fill="none" xmlns="http://www.w3.org/2000/svg">
<path d="M59.8003 6.69531C61.7443 6.69531 63.3283 7.36731 64.5523 8.71131C65.8003 10.0313 66.4243 11.9393 66.4243 14.4353V25.1993H60.4483V15.1913C60.4483 14.2553 60.1963 13.5473 59.6923 13.0673C59.2123 12.5873 58.5643 12.3473 57.7483 12.3473C56.8123 12.3473 56.0803 12.6353 55.5523 13.2113C55.0483 13.7633 54.7963 14.5673 54.7963 15.6233V25.1993H48.8203V7.19931H54.7963V8.99931C55.8763 7.46331 57.5443 6.69531 59.8003 6.69531Z" fill="#C10020"/>
<path d="M45.0919 12.9242H41.3479V18.1442C41.3479 18.9362 41.6359 19.4282 42.2119 19.6202C42.7879 19.8122 43.7479 19.8722 45.0919 19.8002V25.2002C41.5159 25.6322 38.9959 25.3082 37.5319 24.2282C36.0919 23.1242 35.3719 21.1442 35.3719 18.2882V12.9242H32.6719V7.20016H35.3719V3.96016L41.3479 2.16016V7.20016H45.0919V12.9242Z" fill="#C10020"/>
<path d="M22.5021 6.696C24.9021 6.696 26.9061 7.608 28.5141 9.432C30.1461 11.232 30.9621 13.488 30.9621 16.2C30.9621 18.912 30.1461 21.18 28.5141 23.004C26.9061 24.804 24.9021 25.704 22.5021 25.704C20.3181 25.704 18.6141 24.984 17.3901 23.544V25.2H11.4141V0H17.3901V8.856C18.6141 7.416 20.3181 6.696 22.5021 6.696ZM18.4341 19.044C19.1301 19.764 20.0421 20.124 21.1701 20.124C22.2981 20.124 23.2101 19.764 23.9061 19.044C24.6021 18.324 24.9501 17.376 24.9501 16.2C24.9501 15.024 24.6021 14.076 23.9061 13.356C23.2101 12.636 22.2981 12.276 21.1701 12.276C20.0421 12.276 19.1301 12.636 18.4341 13.356C17.7381 14.076 17.3901 15.024 17.3901 16.2C17.3901 17.376 17.7381 18.324 18.4341 19.044Z" fill="#C10020"/>
<path d="M3.78 25.7048C2.724 25.7048 1.824 25.3448 1.08 24.6248C0.36 23.8808 0 22.9928 0 21.9608C0 20.9288 0.372 20.0528 1.116 19.3328C1.86 18.5888 2.748 18.2168 3.78 18.2168C4.812 18.2168 5.688 18.5888 6.408 19.3328C7.152 20.0528 7.524 20.9288 7.524 21.9608C7.524 22.9928 7.152 23.8808 6.408 24.6248C5.688 25.3448 4.812 25.7048 3.78 25.7048Z" fill="#C10020"/>
</svg>
