<svg width="6" height="6" viewBox="0 0 6 6" fill="none" xmlns="http://www.w3.org/2000/svg">
<path d="M2.59345 0.276288C2.7132 -0.0922362 3.23456 -0.0922353 3.3543 0.276289L3.78213 1.59301C3.83568 1.75782 3.98926 1.8694 4.16255 1.8694H5.54703C5.93452 1.8694 6.09563 2.36525 5.78214 2.59301L4.66208 3.40678C4.52188 3.50864 4.46322 3.68919 4.51677 3.854L4.94459 5.17071C5.06434 5.53924 4.64254 5.84569 4.32906 5.61793L3.20899 4.80415C3.0688 4.7023 2.87896 4.7023 2.73876 4.80415L1.61869 5.61793C1.30521 5.84569 0.883418 5.53924 1.00316 5.17072L1.43099 3.854C1.48454 3.68919 1.42587 3.50864 1.28568 3.40678L0.165609 2.59301C-0.147876 2.36525 0.0132349 1.8694 0.400724 1.8694H1.7852C1.95849 1.8694 2.11208 1.75782 2.16563 1.59301L2.59345 0.276288Z" fill="#C10020"/>
</svg>
